<svg width="10" height="10" viewBox="0 0 10 10" xmlns="http://www.w3.org/2000/svg">
<path d="M3.25408 4.28189L5.00188 2.53413L6.75058 4.28279L7.76758 3.26579L5.00188 0.5L2.23713 3.26489L3.25408 4.28189ZM0.501953 4.99986L1.51898 3.98283L2.53595 4.9998L1.51893 6.01682L0.501953 4.99986ZM3.25408 5.71811L5.00188 7.46586L6.75054 5.71725L7.76808 6.73372L7.76758 6.73425L5.00188 9.5L2.23704 6.7352L2.2356 6.73376L3.25408 5.71811ZM7.46799 5.00042L8.48502 3.98339L9.50198 5.00036L8.48495 6.01739L7.46799 5.00042Z" />
<path d="M6.03081 4.99976H6.03126L4.99928 3.96777L4.23662 4.73043H4.23657L4.14896 4.81809L3.96824 4.99886L3.9668 5.00025L3.96824 5.00174L4.99928 6.03282L6.03126 5.00084L6.03176 5.00025L6.03081 4.99976Z"/>
</svg>
