<svg width="24" height="24" viewBox="0 0 24 24" fill="none" xmlns="http://www.w3.org/2000/svg">
<path d="M4.79413 7.05581C4.79413 5.80681 5.80713 4.79381 7.05513 4.79381H8.08413C8.68013 4.79381 9.25313 4.55781 9.67713 4.13681L10.3961 3.41681C11.2771 2.53181 12.7091 2.52781 13.5941 3.40881L13.6031 3.41681L14.3231 4.13681C14.7461 4.55781 15.3191 4.79381 15.9161 4.79381H16.9441C18.1931 4.79381 19.2061 5.80681 19.2061 7.05581V8.08281C19.2061 8.68081 19.4421 9.25281 19.8631 9.67681L20.5831 10.3968C21.4681 11.2778 21.4731 12.7088 20.5921 13.5948L20.5831 13.6038L19.8631 14.3238C19.4421 14.7458 19.2061 15.3198 19.2061 15.9158V16.9448C19.2061 18.1938 18.1931 19.2058 16.9441 19.2058H15.9161C15.3191 19.2058 14.7461 19.4428 14.3231 19.8638L13.6031 20.5828C12.7231 21.4688 11.2911 21.4728 10.4051 20.5918C10.4021 20.5888 10.3991 20.5858 10.3961 20.5828L9.67713 19.8638C9.25313 19.4428 8.68013 19.2058 8.08413 19.2058H7.05513C5.80713 19.2058 4.79413 18.1938 4.79413 16.9448V15.9158C4.79413 15.3198 4.55713 14.7458 4.13613 14.3238L3.41713 13.6038C2.53113 12.7228 2.52713 11.2908 3.40813 10.4058L3.41713 10.3968L4.13613 9.67681C4.55713 9.25281 4.79413 8.68081 4.79413 8.08281V7.05581" stroke="#F0F0F2" stroke-width="1.5" stroke-linecap="round" stroke-linejoin="round"/>
<path d="M9.42969 14.5695L14.5697 9.4295" stroke="#F0F0F2" stroke-width="1.5" stroke-linecap="round" stroke-linejoin="round"/>
<path d="M14.5664 15.3224C14.3664 15.3224 14.1764 15.2424 14.0364 15.1024C13.9664 15.0324 13.9164 14.9424 13.8764 14.8524C13.8364 14.7624 13.8164 14.6734 13.8164 14.5724C13.8164 14.4724 13.8364 14.3724 13.8764 14.2824C13.9164 14.1924 13.9664 14.1124 14.0364 14.0424C14.3164 13.7624 14.8164 13.7624 15.0964 14.0424C15.1664 14.1124 15.2264 14.1924 15.2664 14.2824C15.2964 14.3724 15.3164 14.4724 15.3164 14.5724C15.3164 14.6734 15.2964 14.7624 15.2664 14.8524C15.2264 14.9424 15.1664 15.0324 15.0964 15.1024C14.9564 15.2424 14.7664 15.3224 14.5664 15.3224Z" fill="#F0F0F2"/>
<path d="M9.42627 10.1828C9.32627 10.1828 9.23627 10.1618 9.14627 10.1218C9.05627 10.0818 8.96627 10.0328 8.89627 9.9628C8.82627 9.8828 8.77627 9.8028 8.73627 9.7128C8.69627 9.6218 8.67627 9.5328 8.67627 9.4328C8.67627 9.3318 8.69627 9.2328 8.73627 9.1428C8.77627 9.0528 8.82627 8.9628 8.89627 8.9028C9.18627 8.6218 9.67627 8.6218 9.95627 8.9028C10.0963 9.0418 10.1763 9.2328 10.1763 9.4328C10.1763 9.5328 10.1663 9.6218 10.1263 9.7128C10.0863 9.8028 10.0263 9.8828 9.95627 9.9628C9.88627 10.0328 9.80627 10.0818 9.71627 10.1218C9.62627 10.1618 9.52627 10.1828 9.42627 10.1828Z" fill="#F0F0F2"/>
</svg>
