<svg width="19" height="19" viewBox="0 0 19 19" xmlns="http://www.w3.org/2000/svg">
<path fill-rule="evenodd" clip-rule="evenodd" d="M5 0C2.23858 0 0 2.23858 0 5V14C0 16.7614 2.23858 19 5 19H14C16.7614 19 19 16.7614 19 14V5C19 2.23858 16.7614 0 14 0H5ZM6 1C3.23858 1 1 3.23858 1 6V13C1 15.7614 3.23858 18 6 18H13C15.7614 18 18 15.7614 18 13V6C18 3.23858 15.7614 1 13 1H6Z" />
<rect width="1" height="8" rx="0.5" transform="matrix(-1 0 0 1 10 7)"/>
<rect width="1" height="1.05263" rx="0.5" transform="matrix(-1 0 0 1 10 4)"/>
</svg>
