<svg width="16" height="16" viewBox="0 0 16 16" fill="none" xmlns="http://www.w3.org/2000/svg">
<path d="M13.0888 5.31863C13.0975 5.43529 13.0975 5.55129 13.0975 5.66729C13.0975 9.21729 10.3955 13.308 5.4575 13.308C3.93616 13.308 2.52283 12.8673 1.3335 12.102C1.5495 12.1266 1.7575 12.1353 1.98216 12.1353C3.2375 12.1353 4.39283 11.7113 5.31616 10.988C4.1355 10.9633 3.14616 10.19 2.80483 9.12596C2.97083 9.15063 3.1375 9.16729 3.31216 9.16729C3.55283 9.16729 3.79483 9.13396 4.0195 9.07596C2.78816 8.82663 1.86616 7.74596 1.86616 6.44063V6.40729C2.22416 6.60663 2.6395 6.73129 3.0795 6.74796C2.35616 6.26663 1.88216 5.44329 1.88216 4.51196C1.88216 4.01329 2.01483 3.55596 2.2475 3.15729C3.5695 4.78596 5.55683 5.85063 7.78483 5.96729C7.7435 5.76729 7.71816 5.55996 7.71816 5.35196C7.71816 3.87196 8.9155 2.66663 10.4035 2.66663C11.1768 2.66663 11.8748 2.99063 12.3655 3.51463C12.9722 3.39796 13.5535 3.17329 14.0695 2.86596C13.8702 3.48929 13.4455 4.01329 12.8888 4.34596C13.4295 4.28729 13.9535 4.13796 14.4348 3.92996C14.0695 4.46196 13.6128 4.93596 13.0888 5.31863Z" fill="#F0F0F2"/>
</svg>
