<svg width="32" height="32" viewBox="0 0 32 32" fill="none" xmlns="http://www.w3.org/2000/svg">
<circle cx="16" cy="16" r="16" fill="white"/>
<path d="M13.2811 14.8829L15.9999 12.1642L18.7201 14.8843L20.3021 13.3023L15.9999 9L11.6992 13.3009L13.2811 14.8829ZM9 15.9998L10.582 14.4177L12.164 15.9997L10.582 17.5817L9 15.9998ZM13.2811 17.1171L15.9999 19.8358L18.72 17.1157L20.3029 18.6969L20.3021 18.6977L15.9999 23L11.699 18.6992L11.6968 18.697L13.2811 17.1171ZM19.8361 16.0007L21.4181 14.4186L23 16.0006L21.418 17.5826L19.8361 16.0007Z" fill="#F3BA2F"/>
<path d="M17.6033 15.9991H17.604L15.9987 14.3938L14.8123 15.5802H14.8122L14.6759 15.7165L14.3948 15.9977L14.3926 15.9999L14.3948 16.0022L15.9987 17.6061L17.604 16.0008L17.6047 15.9999L17.6033 15.9991Z" fill="#F3BA2F"/>
</svg>
