<svg
  width="512"
  height="512"
  viewBox="0 0 512 512"
  fill="none"
  xmlns="http://www.w3.org/2000/svg"
>
<circle cx="256" cy="256" r="256" fill="#F3F2F9" />
<path
    d="M348.224 236.393C382.581 270.75 389.147 323.88 389.147 369.04C389.147 369.04 345.946 326.353 341.874 322.281C345.754 304.833 349.988 260.382 348.224 236.393Z"
    fill="url(#paint0_linear_907_252)"
  />
<path
    d="M164.775 236.393C130.418 270.75 123.852 323.88 123.852 369.04C123.852 369.04 167.053 326.353 171.125 322.281C167.245 304.833 163.011 260.382 164.775 236.393Z"
    fill="url(#paint1_linear_907_252)"
  />
<path
    d="M295.306 394.641C295.306 423.379 256.5 445.1 256.5 471.347C256.5 445.101 217.694 423.383 217.694 394.641C217.805 379.827 223.185 365.966 232.184 357.307C233.281 356.182 234.428 355.151 235.623 354.223C235.502 354.718 235.404 355.222 235.329 355.731C234.739 358.373 234.425 361.112 234.395 363.869C234.395 381.977 256.5 412.293 256.5 412.293C256.5 412.293 278.604 381.977 278.604 363.869C278.607 361.118 278.326 358.38 277.769 355.731C277.694 355.222 277.596 354.718 277.475 354.223C278.668 355.151 279.817 356.182 280.914 357.307C289.876 365.992 295.218 379.85 295.306 394.641H295.306Z"
    fill="url(#paint2_linear_907_252)"
  />
<path
    d="M374.332 60L381.825 73.6737L395.499 81.1671L381.825 88.6604L374.332 102.334L366.838 88.6604L353.165 81.1671L366.838 73.6737L374.332 60Z"
    fill="url(#paint3_linear_907_252)"
  />
<path
    d="M115.739 154.546L123.857 169.359L138.67 177.477L123.857 185.594L115.739 200.408L107.621 185.594L92.8079 177.477L107.621 169.359L115.739 154.546Z"
    fill="url(#paint4_linear_907_252)"
  />
<path
    d="M426.16 118.562H426.923C430.219 118.562 432.892 122.161 432.892 125.078V229.876C432.892 233.474 430.219 236.392 426.923 236.392H426.16C422.864 236.392 420.191 232.793 420.191 229.876V125.078C420.191 121.48 422.864 118.562 426.16 118.562Z"
    fill="url(#paint5_linear_907_252)"
  />
<path
    d="M373.759 132.673H374.902C378.095 132.673 380.681 135.967 380.681 138.635V172.574C380.681 175.868 378.092 178.535 374.902 178.535H373.759C370.566 178.535 367.98 175.242 367.98 172.574V138.635C367.98 135.341 370.569 132.673 373.759 132.673Z"
    fill="url(#paint6_linear_907_252)"
  />
<path
    d="M86.4583 200.408C89.965 200.408 92.8084 204.746 92.8084 208.263V310.382C92.8084 314.72 89.965 318.238 86.4583 318.238C82.9516 318.238 80.1082 313.9 80.1082 310.382V208.263C80.1082 203.925 82.9516 200.408 86.4583 200.408Z"
    fill="url(#paint7_linear_907_252)"
  />
<path
    d="M116.092 230.042C119.599 230.042 122.442 233.548 122.442 236.392C122.442 239.899 119.599 242.742 116.092 242.742C112.586 242.742 109.742 239.235 109.742 236.392C109.742 232.885 112.586 230.042 116.092 230.042Z"
    fill="url(#paint8_linear_907_252)"
  />
<path
    d="M333.567 218.029C324.391 143.167 283.835 86.3655 265.877 64.3876C263.572 61.579 260.455 60 257.206 60C253.958 60 250.841 61.579 248.536 64.3876C230.581 86.4361 190.025 143.233 180.846 218.029C179.535 228.184 178.881 238.45 178.888 248.73C178.831 270.275 180.309 291.784 183.309 313.014C185.204 326.964 187.896 340.734 191.363 354.222C191.363 354.222 226.717 324.622 257.205 324.622C287.693 324.622 323.047 354.017 323.047 354.017C326.513 340.528 329.205 326.758 331.101 312.808C334.1 291.578 335.579 270.07 335.521 248.524C335.519 238.311 334.865 228.116 333.564 218.028L333.567 218.029Z"
    fill="url(#paint9_linear_907_252)"
  />
<path
    d="M218.617 282V267.55C218.617 262.223 218.9 257.69 219.467 253.95C220.147 250.097 221.507 246.753 223.547 243.92C225.587 240.973 228.647 238.14 232.727 235.42C236.807 232.587 242.19 229.64 248.877 226.58C255.677 223.407 264.177 219.723 274.377 215.53V188.84C272.563 188.387 270.41 188.103 267.917 187.99C265.537 187.763 262.363 187.65 258.397 187.65C253.07 187.65 247.29 187.933 241.057 188.5C234.937 189.067 229.043 189.86 223.377 190.88L221.167 177.62C226.04 176.147 231.48 175.07 237.487 174.39C243.607 173.597 249.84 173.2 256.187 173.2C268.767 173.2 277.947 175.353 283.727 179.66C289.62 183.967 292.567 190.823 292.567 200.23C292.567 204.65 292.17 208.503 291.377 211.79C290.697 214.963 289.28 217.91 287.127 220.63C284.973 223.35 281.743 226.07 277.437 228.79C273.243 231.397 267.633 234.287 260.607 237.46C253.693 240.633 245.08 244.373 234.767 248.68V267.89H290.697V282H218.617Z"
    fill="white"
  />
<defs>
<linearGradient
      id="paint0_linear_907_252"
      x1="348.449"
      y1="254.521"
      x2="454.071"
      y2="298.153"
      gradientUnits="userSpaceOnUse"
    >
<stop stop-color="#46008C" />
<stop offset="1" stop-color="#49D4F2" />
</linearGradient>
<linearGradient
      id="paint1_linear_907_252"
      x1="164.55"
      y1="254.521"
      x2="43.6552"
      y2="299.275"
      gradientUnits="userSpaceOnUse"
    >
<stop stop-color="#46008C" />
<stop offset="1" stop-color="#49D4F2" />
</linearGradient>
<linearGradient
      id="paint2_linear_907_252"
      x1="217.694"
      y1="354.223"
      x2="282.416"
      y2="447.432"
      gradientUnits="userSpaceOnUse"
    >
<stop stop-color="#46008C" />
<stop offset="1" stop-color="#49D4F2" />
</linearGradient>
<linearGradient
      id="paint3_linear_907_252"
      x1="328.47"
      y1="54.0027"
      x2="395.478"
      y2="118.025"
      gradientUnits="userSpaceOnUse"
    >
<stop stop-color="#46008C" />
<stop offset="1" stop-color="#49D4F2" />
</linearGradient>
<linearGradient
      id="paint4_linear_907_252"
      x1="77.2853"
      y1="149.254"
      x2="109.513"
      y2="204.262"
      gradientUnits="userSpaceOnUse"
    >
<stop stop-color="#46008C" />
<stop offset="1" stop-color="#49D4F2" />
</linearGradient>
<linearGradient
      id="paint5_linear_907_252"
      x1="421.958"
      y1="134.665"
      x2="451.551"
      y2="138.735"
      gradientUnits="userSpaceOnUse"
    >
<stop stop-color="#46008C" />
<stop offset="1" stop-color="#49D4F2" />
</linearGradient>
<linearGradient
      id="paint6_linear_907_252"
      x1="369.747"
      y1="138.941"
      x2="396.553"
      y2="148.413"
      gradientUnits="userSpaceOnUse"
    >
<stop stop-color="#46008C" />
<stop offset="1" stop-color="#49D4F2" />
</linearGradient>
<linearGradient
      id="paint7_linear_907_252"
      x1="81.8746"
      y1="216.511"
      x2="111.468"
      y2="220.581"
      gradientUnits="userSpaceOnUse"
    >
<stop stop-color="#46008C" />
<stop offset="1" stop-color="#49D4F2" />
</linearGradient>
<linearGradient
      id="paint8_linear_907_252"
      x1="111.509"
      y1="231.777"
      x2="122.982"
      y2="246.417"
      gradientUnits="userSpaceOnUse"
    >
<stop stop-color="#46008C" />
<stop offset="1" stop-color="#49D4F2" />
</linearGradient>
<linearGradient
      id="paint9_linear_907_252"
      x1="200.673"
      y1="100.21"
      x2="455.144"
      y2="273.067"
      gradientUnits="userSpaceOnUse"
    >
<stop stop-color="#46008C" />
<stop offset="1" stop-color="#49D4F2" />
</linearGradient>
</defs>
</svg>
