<svg width="58" height="63" viewBox="0 0 58 63" fill="none" xmlns="http://www.w3.org/2000/svg">
<path d="M36.3246 18.8168C36.3246 22.3853 35.2665 25.8735 33.284 28.8405C31.3015 31.8076 28.4836 34.1201 25.1869 35.4857C21.8901 36.8512 18.2624 37.2085 14.7626 36.5124C11.2627 35.8162 8.04791 34.0978 5.52467 31.5746C3.00142 29.0514 1.28307 25.8365 0.58691 22.3367C-0.109252 18.8369 0.248044 15.2092 1.61361 11.9124C2.97918 8.61562 5.2917 5.79782 8.25872 3.81532C11.2257 1.83281 14.714 0.774658 18.2824 0.774658V7.99153C16.1414 7.99153 14.0484 8.62643 12.2682 9.81593C10.488 11.0054 9.10048 12.6961 8.28114 14.6742C7.46179 16.6522 7.24742 18.8289 7.66511 20.9288C8.08281 23.0287 9.11382 24.9576 10.6278 26.4715C12.1417 27.9854 14.0706 29.0165 16.1705 29.4342C18.2704 29.8519 20.447 29.6375 22.4251 28.8181C24.4032 27.9988 26.0938 26.6113 27.2833 24.8311C28.4728 23.0509 29.1077 20.9579 29.1077 18.8168H36.3246Z" fill="white"/>
<path d="M21.9156 18.8167C21.9156 15.2483 22.9738 11.76 24.9563 8.793C26.9388 5.82597 29.7566 3.51346 33.0534 2.14789C36.3501 0.782318 39.9778 0.425022 43.4777 1.12119C46.9775 1.81735 50.1923 3.5357 52.7156 6.05894C55.2388 8.58219 56.9572 11.797 57.6533 15.2968C58.3495 18.7967 57.9922 22.4244 56.6266 25.7211C55.261 29.0179 52.9485 31.8357 49.9815 33.8182C47.0145 35.8007 43.5262 36.8589 39.9578 36.8589V29.642C42.0989 29.642 44.1918 29.0071 45.972 27.8176C47.7522 26.6281 49.1398 24.9374 49.9591 22.9594C50.7784 20.9813 50.9928 18.8047 50.5751 16.7048C50.1574 14.6049 49.1264 12.676 47.6125 11.162C46.0985 9.6481 44.1696 8.61709 42.0697 8.19939C39.9698 7.78169 37.7932 7.99607 35.8151 8.81541C33.8371 9.63475 32.1464 11.0223 30.9569 12.8025C29.7674 14.5827 29.1325 16.6757 29.1325 18.8167H21.9156Z" fill="white"/>
<path d="M4.4226 57.8572H8.95201C11.1758 57.8572 12.5821 56.6635 12.5821 54.7831C12.5821 53.3441 11.8953 52.3957 10.5381 51.9542C11.7481 51.48 12.3532 50.548 12.3532 49.1744C12.3532 47.294 10.9633 46.1494 8.70673 46.1494H4.4226V57.8572ZM8.69038 47.1959C10.2601 47.1959 11.1431 47.9644 11.1431 49.2725C11.1431 50.6624 10.3092 51.48 8.83755 51.48H5.59992V47.1959H8.69038ZM8.95201 52.5102C10.4727 52.5102 11.3884 53.3114 11.3884 54.6359C11.3884 55.9931 10.4891 56.7943 8.95201 56.7943H5.59992V52.5102H8.95201ZM15.8836 57.8572V48.1116L22.3425 57.8572H23.5035V46.1494H22.3425V55.895L15.8999 46.1494H14.7063V57.8572H15.8836ZM26.3632 57.8572H30.8926C33.1165 57.8572 34.5227 56.6635 34.5227 54.7831C34.5227 53.3441 33.8359 52.3957 32.4787 51.9542C33.6888 51.48 34.2938 50.548 34.2938 49.1744C34.2938 47.294 32.9039 46.1494 30.6474 46.1494H26.3632V57.8572ZM30.631 47.1959C32.2008 47.1959 33.0838 47.9644 33.0838 49.2725C33.0838 50.6624 32.2498 51.48 30.7782 51.48H27.5405V47.1959H30.631ZM30.8926 52.5102C32.4133 52.5102 33.329 53.3114 33.329 54.6359C33.329 55.9931 32.4297 56.7943 30.8926 56.7943H27.5405V52.5102H30.8926ZM44.5448 55.3717V54.3252H43.1712V46.1494H41.6015L35.8784 54.3252V55.3717H42.0266V57.8572H43.1712V55.3717H44.5448ZM37.1538 54.3252L42.0266 47.3594V54.3252H37.1538ZM53.4668 57.8572V56.7616H47.5638L50.2945 54.3743C52.6328 52.3303 53.4014 51.202 53.4014 49.5015C53.4014 47.3594 51.9297 45.9368 49.7222 45.9368C47.4166 45.9368 45.8632 47.5556 45.7978 50.0084H46.9751C47.0242 48.1933 48.0871 47.016 49.7059 47.016C51.2593 47.016 52.2077 47.9808 52.2077 49.5669C52.2077 50.9568 51.6517 51.7744 49.4933 53.6548L45.7488 56.9251V57.8572H53.4668Z" fill="white"/>
</svg>
