<svg width="281" height="114" viewBox="0 0 281 114" fill="none" xmlns="http://www.w3.org/2000/svg">
<path d="M123.5 112C31.0996 94.4 -11.6673 36 2.99932 -2.5L486.5 -42.5C466.833 21.6667 215.9 129.6 123.5 112Z" fill="url(#paint0_linear_184_6362)"/>
<path d="M123.5 112C31.0996 94.4 -11.6673 36 2.99932 -2.5L486.5 -42.5C466.833 21.6667 215.9 129.6 123.5 112Z" fill="url(#paint1_radial_184_6362)"/>
<path d="M123.5 112C31.0996 94.4 -11.6673 36 2.99932 -2.5L486.5 -42.5C466.833 21.6667 215.9 129.6 123.5 112Z" fill="url(#paint2_radial_184_6362)"/>
<path d="M123.5 112C31.0996 94.4 -11.6673 36 2.99932 -2.5L486.5 -42.5C466.833 21.6667 215.9 129.6 123.5 112Z" fill="url(#paint3_radial_184_6362)" fill-opacity="0.8"/>
<defs>
<linearGradient id="paint0_linear_184_6362" x1="153.419" y1="-46.9149" x2="107.172" y2="39.1212" gradientUnits="userSpaceOnUse">
<stop offset="0.02" stop-color="#172060"/>
<stop offset="1" stop-color="#7443DE"/>
</linearGradient>
<radialGradient id="paint1_radial_184_6362" cx="0" cy="0" r="1" gradientUnits="userSpaceOnUse" gradientTransform="translate(93.1743 -8.83725) rotate(100.569) scale(97.6971 113.672)">
<stop offset="0.02" stop-color="#172060" stop-opacity="0.35"/>
<stop offset="1" stop-color="#6639BF"/>
</radialGradient>
<radialGradient id="paint2_radial_184_6362" cx="0" cy="0" r="1" gradientUnits="userSpaceOnUse" gradientTransform="translate(89.8498 10.0114) rotate(43.1358) scale(48.7231 48.8424)">
<stop offset="0.02" stop-color="#4E2FA5"/>
<stop offset="1" stop-color="#673ABF" stop-opacity="0"/>
</radialGradient>
<radialGradient id="paint3_radial_184_6362" cx="0" cy="0" r="1" gradientUnits="userSpaceOnUse" gradientTransform="translate(166.838 -45.7067) rotate(146.821) scale(60.9361 82.3902)">
<stop offset="0.02" stop-color="#1E2073"/>
<stop offset="1" stop-color="#673ABF" stop-opacity="0"/>
</radialGradient>
</defs>
</svg>
